<svg xmlns="http://www.w3.org/2000/svg" viewBox="0 0 512 512">
  <defs>
    <linearGradient id="paper" x1="60" y1="40" x2="460" y2="480" gradientUnits="userSpaceOnUse">
      <stop stop-color="#FFFDF7"/>
      <stop offset="1" stop-color="#F1E9D9"/>
    </linearGradient>
  </defs>

  <rect width="512" height="512" rx="112" fill="url(#paper)"/>

  <g fill="#DDD8CB">
    <rect x="48" y="48" width="122" height="122" rx="28"/>
    <rect x="195" y="48" width="122" height="122" rx="28"/>
    <rect x="342" y="48" width="122" height="122" rx="28"/>
    <rect x="48" y="195" width="122" height="122" rx="28"/>
    <rect x="195" y="195" width="122" height="122" rx="28" fill="#C77457"/>
    <rect x="342" y="195" width="122" height="122" rx="28"/>
    <rect x="48" y="342" width="122" height="122" rx="28"/>
    <rect x="195" y="342" width="122" height="122" rx="28"/>
    <rect x="342" y="342" width="122" height="122" rx="28"/>
  </g>

  <g fill="#536A5B">
    <circle cx="109" cy="109" r="19"/>
    <circle cx="256" cy="109" r="19"/>
    <circle cx="403" cy="109" r="19"/>
    <circle cx="109" cy="256" r="19"/>
    <circle cx="403" cy="256" r="19"/>
    <circle cx="109" cy="403" r="19"/>
    <circle cx="256" cy="403" r="19"/>
    <circle cx="403" cy="403" r="19"/>
  </g>

  <path d="M229 256l18 18 38-43" fill="none" stroke="#FFF9ED" stroke-width="18" stroke-linecap="round" stroke-linejoin="round"/>
</svg>
